<svg xmlns="http://www.w3.org/2000/svg" xmlns:xlink="http://www.w3.org/1999/xlink" viewBox="0 0 533.33 533.33"><defs><style>.cls-1{fill:none;}.cls-2{fill:#fff;}.cls-3{fill:#1b6a35;}.cls-4{fill:#fed500;}.cls-5{fill:url(#linear-gradient);}.cls-6{fill:url(#linear-gradient-2);}.cls-7{fill:url(#linear-gradient-3);}.cls-8{clip-path:url(#clip-path);}.cls-9{fill:url(#linear-gradient-4);}.cls-10{clip-path:url(#clip-path-2);}.cls-11{fill:url(#linear-gradient-5);}</style><linearGradient id="linear-gradient" x1="100.57" y1="697.68" x2="424.75" y2="697.68" gradientTransform="translate(0 -482)" gradientUnits="userSpaceOnUse"><stop offset="0" stop-color="#1b6a35"></stop><stop offset="0.38" stop-color="#176631"></stop><stop offset="0.74" stop-color="#0c5b26"></stop><stop offset="1" stop-color="#004e1a"></stop></linearGradient><linearGradient id="linear-gradient-2" x1="101.13" y1="836.97" x2="418.6" y2="836.97" xlink:href="#linear-gradient"></linearGradient><linearGradient id="linear-gradient-3" x1="348.14" y1="898.54" x2="416.7" y2="898.54" xlink:href="#linear-gradient"></linearGradient><clipPath id="clip-path"><path class="cls-1" d="M404.69,377.26c-3.43-3-6.41-5.43-8.56-7.1-1.13-.82-2.29-1.68-3.48-2.62-56-44-115.78-60.65-167.63-64.79a295.63,295.63,0,0,0-57.11,2.63c-1.49.37-4.56.89-10,1.6h-.07A123.87,123.87,0,0,0,139,311c-14.4,4.23-22.72,9.59-23.47,10.08-7.17,4.79-14,11.55-14.4,20.13a76.79,76.79,0,0,0,2.49,12c.23.55.47,1.06.72,1.54a17.24,17.24,0,0,0,3.2,4.47c.27.27.55.52.82.75A11.64,11.64,0,0,0,110,361.1a10.11,10.11,0,0,0,1.48.72,9.36,9.36,0,0,0,1.27.4,6.55,6.55,0,0,0,1.59.22h1.56a6.7,6.7,0,0,0,1-.05h.3l.87-.1,1.06-.15c.4-.06.82-.15,1.23-.23l1.09-.23.79-.21.48-.12h0c.38-.1.75-.19,1.13-.31h0c.43-.12.86-.26,1.3-.4h0l1.14-.36h0L127,360l.6-.22,1.14-.42,1.38-.55,1.12-.46h0l1.36-.6h0l1.12-.49h0l.16-.07,1.23-.58,1.07-.51h0l1.36-.69,1-.52h0l1.3-.69h.06l1-.53h0l1.26-.69h.07l1-.53h0l1.21-.69.12-.07.84-.48,1.39-.82c.22-.14.46-.27.68-.4h0l1.08-.66.32-.19.52-.32h0l.89-.55.58-.37.29-.18c1.23-.9,2.49-1.75,3.76-2.57l2.42-1.52.15-.11h0c1.39-.83,2.82-1.61,4.26-2.36l.88-.44q1.88-1,3.81-1.83l.47-.21c3.07-1.36,6.22-2.55,9.42-3.6.58-.19,1.15-.41,1.73-.59.83-.25,1.65-.46,2.47-.69,1.41-.4,2.82-.78,4.23-1.13s3-.74,4.54-1.05h0c1.18-.24,2.35-.44,3.52-.64.53-.1,1.06-.21,1.59-.29h.21c.49-.08,1-.13,1.47-.2,1.22-.18,2.45-.37,3.67-.52l1.69-.17c1.14-.12,2.28-.24,3.42-.33l2-.13c1-.06,2-.13,3.07-.17.72,0,1.44,0,2.17-.06h0c.8,0,1.59,0,2.39-.06h.92c1,0,2.06,0,3.08.05h1c1.52,0,3,.12,4.56.21l1.15.09c1.13.08,2.26.16,3.38.26l1.62.17,2.89.32,1.73.23c.91.12,1.83.25,2.74.39l1.73.27,2.76.48,1.62.3,3,.6,1.34.28c1.39.3,2.77.63,4.14,1h.1c1.42.35,2.82.72,4.22,1.09l1.18.34q1.5.4,3,.84l1.46.44,2.62.82,1.51.49,2.53.85,1.46.51,2.57.93,1.32.48,2.89,1.12.89.35c1.26.5,2.52,1,3.75,1.53l.37.16c1.09.46,2.17.93,3.24,1.4l1.12.49,2.42,1.1,1.25.59,2.2,1,1.26.61,2.12,1,1.19.6,2.18,1.13,1,.52,2.57,1.38.5.27,3,1.65.74.42,2.11,1.21,1,.57,1.76,1,1,.62,1.58,1,1,.61,1.54,1,.89.56,1.59,1,.71.45.86.57,1.15-6.7a.85.85,0,0,0-.24-.73L313.57,349a.82.82,0,0,1,0-1.16h0a.85.85,0,0,1,.47-.24L325.21,346a.83.83,0,0,0,.62-.45l5-10.2a.82.82,0,0,1,1.1-.37h0a.83.83,0,0,1,.37.37l5,10.2a.83.83,0,0,0,.62.45l11.25,1.63a.81.81,0,0,1,.69.91v0a.85.85,0,0,1-.24.47l-8.14,8a.82.82,0,0,0-.23.73l1.92,11.2a.82.82,0,0,1-.68.94h0a.83.83,0,0,1-.51-.08l-10.06-5.29a.85.85,0,0,0-.76,0l-6,3.15c3.71,2.73,7.39,5.43,11,8h0l4.38,3.14,1.38,1,3,2.08,1.65,1.13,2.64,1.81L351,386c.82.56,1.65,1.11,2.47,1.65l1.79,1.17,2.4,1.54,1.76,1.12,2.38,1.46,1.7,1c.81.49,1.61.95,2.41,1.41l1.6.93c.86.49,1.72,1,2.57,1.41l1.34.74q1.72.92,3.42,1.74l.42.22c1.26.61,2.5,1.19,3.73,1.74l1.12.48c.85.36,1.69.72,2.53,1.05l1.36.51c.74.27,1.47.54,2.19.78.48.17.95.31,1.43.46.68.21,1.36.42,2,.6l1.43.36c.65.16,1.3.31,1.94.44l1.4.26c.63.1,1.25.19,1.87.26l1.34.15c.63,0,1.24.08,1.86.09h2.34l.81-.06a3.55,3.55,0,0,0,.8-.06h0a6.41,6.41,0,0,0,1.07-.15c.51-.07,1-.16,1.52-.27l1-.25h0c.5-.13,1-.28,1.46-.44h0c.33-.11.66-.22,1-.35s1-.41,1.45-.64c.29-.14.59-.27.88-.42s.88-.52,1.31-.79l.23-.14h0c.23-.15.45-.27.67-.42h0a23.94,23.94,0,0,0,2.11-1.65h0l.16-.15h0A24,24,0,0,0,418.1,400h0c.17-.19.33-.4.5-.6C417.39,389.23,407.33,379.63,404.69,377.26Z"></path></clipPath><linearGradient id="linear-gradient-4" x1="186.59" y1="852.73" x2="452.59" y2="852.73" gradientTransform="translate(0 -482)" gradientUnits="userSpaceOnUse"><stop offset="0" stop-color="#1b6a35"></stop><stop offset="0.26" stop-color="#1a6e36"></stop><stop offset="0.5" stop-color="#17793a"></stop><stop offset="0.74" stop-color="#128c41"></stop><stop offset="0.97" stop-color="#0ca64a"></stop><stop offset="1" stop-color="#0baa4b"></stop></linearGradient><clipPath id="clip-path-2"><path class="cls-1" d="M424,271.22h0c-.6-2.19-1.22-4.35-1.85-6.46l-.51-1.68c-.48-1.56-1-3.1-1.44-4.61l-.57-1.75c-.48-1.46-1-2.91-1.46-4.33l-.57-1.63c-.25-.72-.5-1.46-.76-2.17l-.69-1.87-.69-1.86c-.21-.56-.42-1.14-.63-1.69-.34-.91-.69-1.78-1-2.67l-.18-.45c-.6-1.52-1.19-3-1.79-4.45l-.21-.5c-.14-.35-.29-.68-.43-1-.44-1-.88-2.12-1.32-3.13l-.39-.89h0l-.56-1.29c-.49-1.11-1-2.18-1.44-3.22h0l-7.41,7.22a.84.84,0,0,0-.24.72l1.92,11.21a.81.81,0,0,1-.65.94.75.75,0,0,1-.53-.08l-10.07-5.29a.85.85,0,0,0-.76,0l-10.06,5.29a.82.82,0,0,1-1.11-.34h0a.83.83,0,0,1-.08-.51l1.92-11.21a.81.81,0,0,0-.23-.72l-8.21-8a.82.82,0,0,1,0-1.16h0a.91.91,0,0,1,.46-.23l11.25-1.64a.82.82,0,0,0,.62-.44l5-10.2a.82.82,0,0,1,1.1-.37h0a.83.83,0,0,1,.37.37l5,10.2a.82.82,0,0,0,.61.44l9.92,1.44h0c-5.48-11.79-9.61-18.64-9.61-18.64-1.38-2.51-2.73-4.91-4.07-7.25h0l-.15-.27-.33-.55c-5.38-9.34-10.45-17.27-15.23-24l-.05-.08-1.74-2.52-.58-.84-1.32-1.87-.65-.91c-.51-.71-1-1.43-1.54-2.14-.14-.2-.29-.4-.43-.61-.65-.89-1.31-1.79-2-2.69h0l-.53-.72-1.54-2-.71-.93-1.55-2c-.21-.27-.41-.54-.63-.81l-2-2.56c-.05-.06-.09-.12-.14-.17l-.12-.16-.23-.28L359.31,149l-.73-.87c-.53-.64-1.07-1.27-1.6-1.9l-.74-.87-2-2.31-.07-.08-.21-.24-.12-.13c-.73-.81-1.46-1.62-2.19-2.41l-.69-.73c-.56-.6-1.12-1.19-1.69-1.78l-.79-.82L346.7,135l-.53-.52-.08-.07v0c-.76-.74-1.52-1.46-2.28-2.17h0l-.09-.08-.45-.41c-.62-.56-1.24-1.12-1.86-1.66l-.78-.68-1.7-1.41c-.25-.2-.49-.41-.74-.6-.76-.61-1.52-1.2-2.28-1.76l-.09-.07-.15-.1h0c-.73-.54-1.45-1-2.17-1.53l-.74-.48c-.56-.36-1.11-.71-1.67-1l-.76-.45c-.64-.37-1.28-.71-1.91-1l-.42-.22h0a23.88,23.88,0,0,0-2.26-1l-.61-.24c-.57-.22-1.13-.43-1.69-.61l-.74-.24c-.56-.16-1.11-.31-1.65-.43l-.61-.14c-.41-.09-.81-.13-1.21-.19-4.19,0-7.12.68-9.26,1.85-.31.18-.61.38-.91.57-8.34,5.83-3.12,21.77-24.79,43.18-8.37,8.27-16.76,13.29-24.67,16.14a51.71,51.71,0,0,1-40.73-2.07c-5.34-2.81-10.46-10.38-14.13-17-.71-1.27-1.36-2.49-2-3.64h0c-5.59-9.32-14.13-9.84-21-8.23-20.44,5-47.74,56.67-47.74,56.67h0c-9.33,17.79-15.62,33.14-16.8,36.05a300.68,300.68,0,0,0-12,40.61q-1.86,8.58-3,16.56c-.76,5.23-1.3,10.25-1.63,15,100.11-34.71,176-29.69,243.11-17.3h0S433.86,312.76,424,271.22ZM291.4,224.78l-8.14,7.94a.81.81,0,0,0-.23.72l2,11.21a.82.82,0,0,1-.68.94h0a.83.83,0,0,1-.51-.08l-10.06-5.29a.85.85,0,0,0-.76,0L263,245.51a.82.82,0,0,1-1.1-.33.88.88,0,0,1-.08-.53l1.92-11.21a.84.84,0,0,0-.24-.72l-8.14-7.94a.81.81,0,0,1,.45-1.39L267,221.75a.82.82,0,0,0,.61-.44l5-10.2a.82.82,0,0,1,1.1-.37h0a.83.83,0,0,1,.37.37l5,10.2a.82.82,0,0,0,.62.44l11.3,1.64a.81.81,0,0,1,.42,1.39ZM349.82,163l-8.14,7.94a.84.84,0,0,0-.24.72l1.93,11.21a.82.82,0,0,1-.68.94h0a.83.83,0,0,1-.51-.08l-10.07-5.29a.85.85,0,0,0-.76,0l-10.06,5.29a.82.82,0,0,1-1.11-.34h0a.83.83,0,0,1-.08-.51l1.9-11.21a.81.81,0,0,0-.23-.72L313.65,163a.81.81,0,0,1,.45-1.39L325.35,160a.79.79,0,0,0,.62-.44l5-10.2a.82.82,0,0,1,1.1-.37h0a.83.83,0,0,1,.37.37l5,10.2a.79.79,0,0,0,.62.44l11.25,1.64a.81.81,0,0,1,.73.88h0A.82.82,0,0,1,349.82,163Zm22.06,116.47-3.26,3.18a.81.81,0,0,0-.23.72l.77,4.49a.83.83,0,0,1-.69.95h0a.86.86,0,0,1-.5-.08l-4-2.12a.79.79,0,0,0-.76,0l-4,2.12a.82.82,0,0,1-1.18-.87l.77-4.49a.84.84,0,0,0-.24-.72l-3.26-3.18a.82.82,0,0,1,0-1.16h0a.85.85,0,0,1,.47-.24l4.51-.65a.83.83,0,0,0,.62-.45l2-4.08a.82.82,0,0,1,1.1-.37h0a.83.83,0,0,1,.37.37l2,4.08a.81.81,0,0,0,.61.45l4.51.65a.82.82,0,0,1,.41,1.4Z"></path></clipPath><linearGradient id="linear-gradient-5" x1="29.27" y1="730.1" x2="491.92" y2="730.1" xlink:href="#linear-gradient-4"></linearGradient></defs><g id="Layer_2" data-name="Layer 2"><g id="Layer_1-2" data-name="Layer 1"><circle class="cls-2" cx="266.64" cy="266.64" r="155.57"></circle><path class="cls-2" d="M266.64,111.07A155.57,155.57,0,1,1,111.07,266.64h0A155.57,155.57,0,0,1,266.64,111.07m0-101.07C124.9,9.12,9.29,123.3,8.4,265s113.3,257.36,255,258.24h3.2c141.75,0,256.64-115,256.59-256.75S408.4,10,266.76,10Z"></path><path class="cls-3" d="M266.64,533.33C119.58,533.33,0,413.69,0,266.64S119.58,0,266.64,0,533.33,119.58,533.33,266.64,413.69,533.33,266.64,533.33Zm0-504.51C135.5,28.82,28.82,135.51,28.82,266.64S135.5,504.45,266.64,504.45,504.45,397.77,504.45,266.64,397.77,28.82,266.64,28.82Z"></path><path class="cls-3" d="M266.64,111.07A155.57,155.57,0,1,1,111.07,266.64h0A155.57,155.57,0,0,1,266.64,111.07"></path><path class="cls-3" d="M386,448.33a37,37,0,0,1-24.38-9c-10.46-9.12-22-24.09-22.46-24.72-.29-.38-27.6-36.06-43.06-47.12l-.1-.05-2.41-1.29-13.75-6.65-3-1.29-.38-.17L273,356.59l-.8-.31c-.89-.35-1.77-.7-2.66-1l-1.23-.45L266,354l-1.4-.49-2.28-.77-1.44-.47-2.34-.73-1.39-.42-2.63-.75-1.18-.33-3.76-1c-1.29-.34-2.59-.62-3.85-.89l-1.2-.25c-.9-.19-1.78-.38-2.67-.54l-1.51-.28c-.83-.16-1.66-.3-2.49-.43l-1.58-.25-2.42-.35-1.62-.21c-.77-.09-1.63-.19-2.49-.27l-1.56-.16c-.93-.09-1.92-.17-2.91-.23l-1.1-.08c-1.29-.09-2.63-.15-4-.18h-4.55l-3.94.1-1.9.11-2.52.15c-.82.07-1.62.15-2.41.24l-2.06.21c-.91.1-1.77.23-2.63.36l-4.19.68-1.47.27-1.5.5h-.89c-.81.18-1.62.38-2.44.58-1.16.29-2.42.63-3.68,1l-1,.29-1.07.3-1.36.46a84,84,0,0,0-8,3.07l-.45.19c-1,.46-2,1-3.08,1.48l-.82.41c-1.16.61-2.29,1.23-3.33,1.85-.8.48-1.44.9-2.09,1.32-1.19.76-2.13,1.4-3,2l-.43.29-3.81,2.39-11.93,6.62-4.08,2-8.87,3.58c-.52.19-.91.31-1.31.44l-5.14,1.45c-.54.13-1,.23-1.51.33l-.26.05c-.52.11-1.06.22-1.59.31s-1.06.16-1.53.21l-1.39.17-.78.08c-.45,0-1,.06-1.49.07H115.4a23.38,23.38,0,0,1-5.46-.67,26.39,26.39,0,0,1-3.37-1.07,28.2,28.2,0,0,1-3.71-1.8,27.64,27.64,0,0,1-3.78-2.66c-.58-.48-1.22-1.06-1.86-1.68A33.38,33.38,0,0,1,91,362c-.41-.78-.81-1.65-1.2-2.56l-.61-1.67a91.7,91.7,0,0,1-3-14.5c-.3-2.21-.52-4.23-.68-6.16-.35-4.42-.51-9.13-.45-14v-.31c0-1.34.07-2.81.12-4.3.07-1.66.15-3.34.26-5.05v-.86q.59-8.19,1.78-16.43c.84-5.75,1.92-11.69,3.21-17.65a317.29,317.29,0,0,1,12.67-42.79l.13-.33c1.25-3.1,7.81-19.1,17.5-37.58,7.2-13.64,32.62-58.57,57.94-65,16.19-3.8,30.59,2,38.69,15.52l.4.71c.64,1.24,1.19,2.28,1.8,3.36,4.85,8.71,7.71,10.65,7.74,10.67a36,36,0,0,0,27.66,1.1c6.5-2.34,12.83-6.53,18.82-12.46,10.17-10,12.55-18,14.65-25,1.94-6.44,4.35-14.45,12.23-20l.35-.23c.56-.37,1.09-.7,1.63-1l.37-.21c4.68-2.57,10-3.79,16.87-3.85h1.23l1.47.22c.58.07,1.19.17,1.82.29l1.05.24c.85.19,1.73.42,2.62.69l1.23.38c.85.29,1.71.6,2.58,1l.94.38c1,.4,2.06.9,3.15,1.44l.74.39c.79.41,1.65.88,2.5,1.37l.91.54c.79.47,1.51.93,2.24,1.4l.91.59c.9.61,1.76,1.21,2.62,1.84l.54.39c.89.66,1.78,1.35,2.67,2.06l.87.71c.65.52,1.3,1.07,2,1.63l.89.78c.74.64,1.46,1.28,2.17,1.93l.7.64c.84.78,1.61,1.51,2.37,2.25l.84.83,2,2,3.45,3.62c.81.87,1.61,1.75,2.41,2.65l.34.38c.82.91,1.54,1.74,2.26,2.58l3.26,3.86,2,2.48.39.48,2.26,2.85,3,4c.53.69,1.08,1.42,1.62,2.15l.83,1.11,1.85,2.51,4.65,6.55c.66.95,1.26,1.81,1.84,2.67,5.07,7.08,10.47,15.58,16,25.11l.44.77c1.42,2.47,2.79,4.91,4.19,7.45.65,1.09,4.81,8.21,10.17,19.75l1.11,2.42c.5,1.09,1,2.23,1.53,3.41l1,2.27c.41,1,.82,1.94,1.23,2.92l.84,2c.63,1.53,1.26,3.09,1.89,4.7l.22.57c.32.83.69,1.76,1.06,2.74l3.48,9.58c.55,1.59,1.05,3.11,1.56,4.65l.6,1.82c.52,1.63,1,3.26,1.52,4.89l.52,1.68c.69,2.33,1.34,4.59,2,6.9,2.25,8.22,4.13,16.48,5.59,24.55.73,4,1.37,8.06,1.9,12,.62,4.56,1.11,9.12,1.47,13.57.46,5.75.72,11.48.76,17,0,4.76-.11,9.84-.44,15.11-3.16,38.05-18.27,64-22.83,71l-.9,1.34a68.91,68.91,0,0,1-3.94,5.66A80.36,80.36,0,0,1,409.35,440,37.25,37.25,0,0,1,386,448.33ZM216.5,330h4c1.58,0,3.1.11,4.64.21l1.13.08c1.09.08,2.21.16,3.34.27l1.59.17c1,.09,1.91.2,2.86.31l1.69.22,2.73.39,1.69.27c1,.16,1.89.31,2.81.49l1.54.28q1.5.29,3,.6l1.25.26c1.45.32,2.82.63,4.29,1s2.81.71,4.18,1.09l1.21.34c1,.26,1.93.54,2.9.82l1.46.44c.88.27,1.75.54,2.6.82l1.48.48,2.52.84,1.45.51,2.57.93,1.26.47c1,.37,2,.75,2.92,1.12l.83.32c1.31.53,2.56,1,3.92,1.6l.37.17c.94.39,2,.86,3.13,1.35l6.9,3.18,7.7,3.88,2.57,1.37,1.22.72c17.28,12.08,45.49,48.94,46.68,50.5.1.13,11.1,14.42,20.42,22.55a22.59,22.59,0,0,0,28.7.48,66.55,66.55,0,0,0,10.37-10.45,52.06,52.06,0,0,0,3.08-4.42l1-1.58c4.12-6.4,17.61-29.65,20.46-64,.29-4.77.43-9.51.4-13.92,0-5.19-.28-10.56-.72-16-.33-4.17-.8-8.47-1.38-12.77-.5-3.7-1.1-7.51-1.79-11.31-1.39-7.65-3.17-15.49-5.31-23.29-.59-2.21-1.22-4.37-1.86-6.52l-.5-1.63c-.48-1.59-1-3.13-1.45-4.65l-.58-1.77c-.48-1.46-1-2.91-1.46-4.34l-3.39-9.37c-.31-.81-.66-1.68-1-2.51l-.22-.57c-.58-1.46-1.17-3-1.76-4.38l-.83-2c-.39-.94-.77-1.85-1.16-2.73l-1-2.24c-.47-1.09-1-2.16-1.42-3.18l-1.09-2.38c-5.15-11.08-9.15-17.86-9.58-18.6-1.49-2.69-2.82-5-4.16-7.4l-.44-.74c-5.27-9.15-10.4-17.23-15.28-24.05l-6.36-9c-.56-.79-1.15-1.58-1.74-2.38l-.81-1.1-1.53-2-5.45-7-1.88-2.31-3.11-3.68c-.65-.75-1.33-1.54-2.06-2.36l-.33-.36c-.76-.85-1.49-1.66-2.22-2.44l-3.21-3.37L348.52,134l-.79-.78c-.67-.64-1.36-1.3-2.06-2l-.65-.59c-.63-.58-1.26-1.14-1.89-1.69l-.83-.72c-.53-.45-1.1-.93-1.68-1.39l-.81-.67c-.69-.55-1.43-1.12-2.14-1.65l-.49-.35c-.71-.52-1.42-1-2.1-1.48l-.8-.52c-.53-.35-1.1-.7-1.64-1l-.76-.46c-.73-.42-1.38-.77-2-1.11l-.49-.26a21.31,21.31,0,0,0-2.3-1l-.56-.22c-.7-.29-1.28-.5-1.85-.69l-.86-.27c-.52-.15-1.11-.3-1.74-.45l-.48-.11-1-.17h-.5c-4.3,0-7.42.67-9.83,2-.34.19-.67.4-1,.61-3.51,2.46-4.78,6.2-6.55,12.1-2.36,7.82-5.57,18.54-18.43,31.24-7.54,7.45-15.69,12.79-24.23,15.86a50.74,50.74,0,0,1-39.74-2c-2.87-1.52-7.57-5.6-13.63-16.48-.7-1.24-1.35-2.46-1.93-3.6l-.15-.26c-6-10-15.46-10.17-22.34-8.56C168,151,147.66,178.82,133.93,204.81,124.52,222.59,118.21,238,117,240.89a300.09,300.09,0,0,0-12,40.81c-1.23,5.63-2.25,11.22-3,16.64-.75,5.12-1.3,10.24-1.66,15.22v.83c-.11,1.64-.19,3.19-.25,4.71,0,1.34-.09,2.68-.11,3.89v.31c0,4.44.08,8.69.41,12.65.13,1.69.33,3.46.59,5.4a77.9,77.9,0,0,0,2.47,12l.18.5c.22.5.45,1,.68,1.43a18.44,18.44,0,0,0,3.4,4.77c.33.32.62.59.91.82a13,13,0,0,0,1.78,1.26,13.36,13.36,0,0,0,1.7.83,10.74,10.74,0,0,0,1.36.43,9,9,0,0,0,2,.26H118l1.22-.14c.56-.07.84-.1,1.17-.16l1.06-.21.32-.06.93-.2,8.55-2.78,7.7-3.5,11.2-6.23,3.08-1.94c1-.73,2.12-1.49,3.47-2.36.77-.5,1.57-1,2.38-1.49,1.43-.86,2.8-1.63,4.36-2.44l.91-.45c1.19-.6,2.43-1.21,3.73-1.79l.48-.21q4.56-2,9.29-3.55l.78-.27.94-.31c.49-.15,1-.3,1.53-.43l.93-.26c1.35-.39,2.76-.76,4.1-1.1s2.44-.6,3.63-.85l1.47-.31,2.19-.4,4.6-.75c1-.15,2-.3,3-.42l2.25-.23c.93-.1,1.87-.2,2.79-.27l1.26-.08,1.25-.07c1-.07,1.78-.12,2.53-.15l3-.07h2.48Z"></path><path class="cls-3" d="M110.13,387.54l.07-.07c7.52-6.86,18.69-6.45,25.82,1.36,4.81,5.26,5.69,10.67,4.61,15.85l-9.07-1.58c.49-3.16.12-5.93-2.13-8.4-3.29-3.61-8.67-3.36-12.43.07l-.07.07c-3.87,3.53-4.57,8.83-1.28,12.44,2.46,2.69,5.16,3.13,8.45,3l1.08,8.88c-5.58.62-11-.4-16.25-6.11a17.72,17.72,0,0,1,.7-25.05h0C109.8,387.83,110,387.69,110.13,387.54Z"></path><path class="cls-3" d="M146.7,401,169,418l-5,6.53-14.69-11.25-3.21,4.19,13.29,10.2-4.64,6.05-13.3-10.19L138.06,428,153,439.37l-5,6.53-22.48-17.23Z"></path><path class="cls-3" d="M170.79,419.21l14.66,7.59c4.74,2.45,7.38,5.38,8.36,8.59a10.81,10.81,0,0,1-1,8.64v.09a11,11,0,0,1-11.31,6.22L183.28,465l-9.92-5.13L172,447.23l-3.77-2-4.86,9.39-8.59-4.45Zm6.56,22.27c2.93,1.51,5.34,1,6.51-1.3v-.09c1.26-2.43.13-4.59-2.75-6.08l-5.63-2.91-3.85,7.44Z"></path><path class="cls-3" d="M205.79,444.58l-10-3.12,2.53-8.09,29.23,9.12L225,450.58l-10-3.12-7.87,25.24-9.23-2.89Z"></path><path class="cls-3" d="M230,442.42l9.56,1.74-6.22,34.34-9.57-1.73Z"></path><path class="cls-3" d="M243.68,445.16l27.89,1.57-.48,8.47-18.23-1-.33,5.92L269,461l-.45,8-16.48-.93-.71,12.45L241.7,480Z"></path><path class="cls-3" d="M274,446.09l9.7-.66,2.37,34.84-9.71.66Z"></path><path class="cls-3" d="M287.94,445.43,315.49,440l1.6,8.08-18.16,3.58,1,5.18,16.45-3.24,1.47,7.49-16.44,3.24,1.07,5.43,18.4-3.63,1.6,8.08-27.8,5.48Z"></path><path class="cls-3" d="M317.54,439.53l12.52-4.95c11.6-4.57,21-.55,24.66,8.82v.09c3.7,9.37-.37,19-12.06,23.64L330.36,472ZM339.87,459c5.39-2.12,7.79-6.5,5.72-11.74v-.1c-2-5.19-6.81-6.8-12.2-4.67l-3.7,1.51,6.52,16.51Z"></path><path class="cls-2" d="M419.73,416.22c3.92-6.07,18.62-31,21.66-67.46.29-4.82.46-9.71.42-14.6,0-5.39-.29-10.94-.74-16.49-.34-4.3-.82-8.73-1.42-13.17-.52-3.86-1.14-7.78-1.84-11.64-1.43-7.87-3.26-15.92-5.45-23.93-.62-2.25-1.26-4.46-1.91-6.67l-.52-1.7c-.49-1.6-1-3.19-1.48-4.75l-.59-1.79c-.5-1.51-1-3-1.5-4.45l-3.43-9.49c-.36-.94-.72-1.84-1.06-2.71l-.19-.5c-.62-1.56-1.23-3.09-1.83-4.55l-.85-2c-.39-.95-.79-1.9-1.18-2.81l-1-2.25c-.5-1.14-1-2.25-1.48-3.3l-1.1-2.39c-5.2-11.21-9.25-18.13-9.94-19.3-1.38-2.51-2.73-4.9-4.1-7.29l-.46-.79c-5.37-9.33-10.64-17.62-15.66-24.63-.57-.84-1.16-1.69-1.79-2.59l-2.57-3.65L378.08,159l-.36-.49L375.93,156l-.83-1.11c-.52-.7-1.05-1.4-1.58-2.09l-.73-1c-.53-.69-1.06-1.38-1.59-2.05l-.65-.85-2.1-2.64-.17-.21a2.11,2.11,0,0,0-.19-.23l-.14-.17c-.64-.8-1.28-1.59-1.95-2.4l-.75-.89-1.64-2-.78-.91L360.68,137l-.38-.42c-.76-.85-1.53-1.7-2.28-2.51l-.72-.77-1.77-1.86-.85-.88c-.63-.64-1.26-1.27-1.92-1.92L352,128c-.73-.71-1.46-1.4-2.19-2.08l-.71-.65-2-1.8-.85-.74c-.62-.53-1.24-1-1.85-1.54l-.81-.66c-.81-.65-1.63-1.28-2.4-1.85l-.55-.4c-.78-.57-1.57-1.12-2.33-1.63l-.86-.57c-.65-.42-1.3-.83-1.91-1.19l-.92-.55q-1.14-.66-2.25-1.23l-.59-.31c-.93-.47-1.86-.89-2.76-1.27l-.78-.31c-.72-.29-1.44-.55-2.15-.78-.31-.11-.63-.21-1-.32-.74-.22-1.48-.41-2.26-.59l-.78-.18c-.47-.09-.93-.16-1.39-.22l-.92-.13H319c-5.57,0-9.81,1-13.34,2.92l-.2.11q-.66.39-1.29.81L304,113c-5.77,4-7.6,10.12-9.38,16-2.24,7.45-5,16.73-16.53,28.1-6.77,6.68-14,11.45-21.53,14.15a43.12,43.12,0,0,1-33.78-1.6c-1-.53-4.79-3.08-10.61-13.52-.65-1.16-1.25-2.29-1.79-3.36l-.29-.51c-6.46-10.76-17.52-15.2-30.51-12.16-22.93,5.82-48.33,52-53.19,61.24-9.53,18.17-16,33.87-17.16,36.83l-.09.22a310.14,310.14,0,0,0-12.37,41.79c-1.26,5.81-2.31,11.58-3.12,17.14-.77,5.32-1.35,10.59-1.72,15.77V314c-.1,1.64-.19,3.25-.25,4.84,0,1.41-.1,2.82-.11,4.08v.33c0,4.66.09,9.14.43,13.32.15,1.81.36,3.7.64,5.78a85.31,85.31,0,0,0,2.78,13.33l.32.9c.32.75.65,1.44,1,2.09a26.05,26.05,0,0,0,4.8,6.65c.47.47.93.89,1.37,1.25a22.27,22.27,0,0,0,2.77,1.95,19.21,19.21,0,0,0,2.7,1.31,17,17,0,0,0,2.39.76,16.18,16.18,0,0,0,3.67.46h2l1.2-.07a5.14,5.14,0,0,0,.55-.06,8.27,8.27,0,0,0,1-.12h.21a7.83,7.83,0,0,0,1.17-.16l1.37-.27.3-.06q.6-.1,1.17-.24l.43-.11,4.29-1.23,1-.33,1.87-.67.9-.34L133,367l4.39-1.88h0l.83-.39,3.17-1.54,11.56-6.43,3.46-2.18c1-.7,2-1.42,3.33-2.27.72-.47,1.44-.93,2.17-1.37l.15-.09c1.16-.69,2.41-1.39,3.83-2.12l.78-.39c1.13-.58,2.28-1.13,3.47-1.67l.4-.17a89.12,89.12,0,0,1,8.63-3.3l.88-.3.69-.24,1.27-.36,1-.28c1.33-.37,2.66-.73,3.93-1.05s2.27-.55,3.4-.8h.49l.83-.27c.8-.16,1.6-.3,2.4-.44l3.76-.61c1-.16,2.07-.31,3.11-.43l.79-.08.94-.1c1-.11,2-.22,3-.3l1-.06,1.33-.08c.8,0,1.59-.11,2.36-.14h9c1.44,0,2.87.11,4.32.2l1,.08c1.06.07,2.12.15,3.18.25l1.53.16c.92.09,1.83.19,2.72.3l1.63.21,2.6.37,1.63.26,2.62.46,1.54.28c.94.18,1.88.37,2.81.57l1.27.26c1.32.29,2.63.59,4,.94l4,1,1.16.33c.94.25,1.87.52,2.81.8l1.39.42,2.48.77,1.45.48,2.41.81,1.42.49,2.47.89,1.25.47c.93.34,1.85.7,2.76,1.06l.86.33,3.73,1.53.23.1c1,.44,2.09.89,3.14,1.36l1,.47,2.3,1,1.24.59c.71.33,1.42.66,2.1,1l4.4,2.16,2.17,1,1,.51c.85.44,1.67.89,2.47,1.31l.5.27C315.5,372.66,344,410,344,410h0a145,145,0,0,0,21.45,23.65,30,30,0,0,0,38.25.63,73.5,73.5,0,0,0,11.54-11.65c1.76-2.27,2.89-4.06,3.5-5l.11-.18Z"></path><path class="cls-1" d="M363.67,393.76l-1.69-1Z"></path><path class="cls-1" d="M104.31,354.7a17.24,17.24,0,0,0,3.2,4.47A17.24,17.24,0,0,1,104.31,354.7Z"></path><path class="cls-1" d="M420.18,397.49c-.41.54-.83,1.05-1.25,1.54C419.35,398.54,419.77,398,420.18,397.49Z"></path><path class="cls-1" d="M362,392.73h0l1.69,1h0Z"></path><path class="cls-2" d="M321.79,170.94a.81.81,0,0,1,.23.72l-1.92,11.21a.82.82,0,0,0,.68.94h0a.83.83,0,0,0,.51-.08l10.06-5.29a.85.85,0,0,1,.76,0l10.07,5.29a.82.82,0,0,0,1.11-.34h0a.83.83,0,0,0,.08-.51l-1.93-11.21a.84.84,0,0,1,.24-.72l8.14-7.94a.81.81,0,0,0-.45-1.39L338.12,160a.79.79,0,0,1-.62-.44l-5-10.2a.82.82,0,0,0-1.1-.37h0a.83.83,0,0,0-.37.37l-5,10.2a.79.79,0,0,1-.62.44l-11.25,1.64a.81.81,0,0,0-.45,1.39Z"></path><path class="cls-2" d="M325.38,367.44l6-3.15a.85.85,0,0,1,.76,0l10.06,5.3a.83.83,0,0,0,1.11-.37.79.79,0,0,0,.08-.5l-1.92-11.2a.82.82,0,0,1,.23-.73l8.14-7.93a.82.82,0,0,0,0-1.16h0a.85.85,0,0,0-.47-.24l-11.25-1.63a.83.83,0,0,1-.62-.45l-5-10.2a.82.82,0,0,0-1.1-.37h0a.83.83,0,0,0-.37.37l-5,10.2a.83.83,0,0,1-.62.45l-11.25,1.63a.81.81,0,0,0-.69.91v0a.85.85,0,0,0,.24.47l8.14,7.93a.85.85,0,0,1,.24.73l-1.15,6.7,1.29.86Z"></path><path class="cls-2" d="M322.17,365.08l-1.29-.86h0l1.29.86,3.21,2.36h0Z"></path><path class="cls-2" d="M322.17,365.08l-1.29-.86h0Z"></path><path class="cls-2" d="M325.38,367.44h0l-3.21-2.36Z"></path><path class="cls-2" d="M263.39,232.72a.84.84,0,0,1,.24.72l-1.92,11.21a.81.81,0,0,0,.65.94.75.75,0,0,0,.53-.08L273,240.22a.85.85,0,0,1,.76,0l10.06,5.29a.82.82,0,0,0,1.11-.34h0a.83.83,0,0,0,.08-.51l-1.92-11.21a.81.81,0,0,1,.23-.72l8.14-7.94a.81.81,0,0,0-.45-1.39l-11.25-1.64a.82.82,0,0,1-.62-.44l-5-10.2a.82.82,0,0,0-1.1-.37h0a.83.83,0,0,0-.37.37l-5,10.2a.82.82,0,0,1-.61.44l-11.26,1.64a.81.81,0,0,0-.45,1.39Z"></path><path class="cls-2" d="M407.49,225.5h0c-.15-.31-.29-.63-.43-.94l-.63-1.37h0C406.78,223.94,407.13,224.71,407.49,225.5Z"></path><path class="cls-2" d="M395.9,221.31l-5-10.2a.82.82,0,0,0-1.1-.37h0a.83.83,0,0,0-.37.37l-5,10.2a.82.82,0,0,1-.62.44l-11.25,1.64a.81.81,0,0,0-.69.91v0a.91.91,0,0,0,.23.46l8.15,7.94a.81.81,0,0,1,.23.72l-1.92,11.21a.82.82,0,0,0,.68.94h0a.83.83,0,0,0,.51-.08l10.06-5.29a.85.85,0,0,1,.76,0l10.07,5.29a.82.82,0,0,0,1.1-.33.88.88,0,0,0,.08-.53l-1.92-11.21a.84.84,0,0,1,.24-.72l7.41-7.22c-.36-.79-.71-1.56-1.06-2.31l-9.92-1.44A.83.83,0,0,1,395.9,221.31Z"></path><path class="cls-2" d="M358.49,282.65a.84.84,0,0,1,.24.72l-.77,4.49a.82.82,0,0,0,.67.95h0a.83.83,0,0,0,.51-.08l4-2.12a.79.79,0,0,1,.76,0l4,2.12a.83.83,0,0,0,1.11-.37.79.79,0,0,0,.08-.5l-.77-4.49a.81.81,0,0,1,.23-.72l3.26-3.18a.82.82,0,0,0,0-1.16h0a.85.85,0,0,0-.47-.24l-4.51-.65a.81.81,0,0,1-.61-.45l-2-4.08a.82.82,0,0,0-1.1-.37h0a.83.83,0,0,0-.37.37l-2,4.08a.83.83,0,0,1-.62.45l-4.51.65a.81.81,0,0,0-.69.91v0a.85.85,0,0,0,.24.47Z"></path><path class="cls-2" d="M343.62,296.24h0q8,1.49,15.87,3.08c26.24,5.32,44,7.13,56,7.31,2.46,0,15.3-.59,13.8-12.24-1.47-8.09-3.27-15.85-5.28-23.18C433.86,312.76,343.62,296.24,343.62,296.24Z"></path><path class="cls-2" d="M425.32,276.13c.57,2.21,1.11,4.45,1.63,6.74Q426.17,279.45,425.32,276.13Z"></path><path class="cls-3" d="M167.91,305.38c-3.41.49-6.73,1-10,1.6C163.35,306.27,166.42,305.75,167.91,305.38Z"></path><path class="cls-3" d="M424,271.22h0c-.6-2.19-1.22-4.35-1.85-6.46l-.51-1.68c-.48-1.56-1-3.1-1.44-4.61l-.57-1.75c-.48-1.46-1-2.91-1.46-4.33l-.57-1.63c-.25-.72-.5-1.46-.76-2.17l-.69-1.87-.69-1.86c-.21-.56-.42-1.14-.63-1.69-.34-.91-.69-1.78-1-2.67l-.18-.45c-.6-1.52-1.19-3-1.79-4.45l-.21-.5c-.14-.35-.29-.68-.43-1-.44-1-.88-2.12-1.32-3.13l-.39-.89h0l-.56-1.29c-.49-1.11-1-2.18-1.44-3.22h0l-7.41,7.22a.84.84,0,0,0-.24.72l1.92,11.21a.81.81,0,0,1-.65.94.75.75,0,0,1-.53-.08l-10.07-5.29a.85.85,0,0,0-.76,0l-10.06,5.29a.82.82,0,0,1-1.11-.34h0a.83.83,0,0,1-.08-.51l1.92-11.21a.81.81,0,0,0-.23-.72l-8.21-8a.82.82,0,0,1,0-1.16h0a.91.91,0,0,1,.46-.23l11.25-1.64a.82.82,0,0,0,.62-.44l5-10.2a.82.82,0,0,1,1.1-.37h0a.83.83,0,0,1,.37.37l5,10.2a.82.82,0,0,0,.61.44l9.92,1.44h0c-5.48-11.79-9.61-18.64-9.61-18.64-1.38-2.51-2.73-4.91-4.07-7.25h0l-.15-.27-.33-.55c-5.38-9.34-10.45-17.27-15.23-24l-.05-.08-1.74-2.52-.58-.84-1.32-1.87-.65-.91c-.51-.71-1-1.43-1.54-2.14-.14-.2-.29-.4-.43-.61-.65-.89-1.31-1.79-2-2.69h0l-.53-.72-1.54-2-.71-.93-1.55-2c-.21-.27-.41-.54-.63-.81l-2-2.56c-.05-.06-.09-.12-.14-.17l-.12-.16-.23-.28L359.31,149l-.73-.87c-.53-.64-1.07-1.27-1.6-1.9l-.74-.87-2-2.31-.07-.08-.21-.24-.12-.13c-.73-.81-1.46-1.62-2.19-2.41l-.69-.73c-.56-.6-1.12-1.19-1.69-1.78l-.79-.82L346.7,135l-.53-.52-.08-.07v0c-.76-.74-1.52-1.46-2.28-2.17h0l-.09-.08-.45-.41c-.62-.56-1.24-1.12-1.86-1.66l-.78-.68-1.7-1.41c-.25-.2-.49-.41-.74-.6-.76-.61-1.52-1.2-2.28-1.76l-.09-.07-.15-.1h0c-.73-.54-1.45-1-2.17-1.53l-.74-.48c-.56-.36-1.11-.71-1.67-1l-.76-.45c-.64-.37-1.28-.71-1.91-1l-.42-.22h0a23.88,23.88,0,0,0-2.26-1l-.61-.24c-.57-.22-1.13-.43-1.69-.61l-.74-.24c-.56-.16-1.11-.31-1.65-.43l-.61-.14c-.41-.09-.81-.13-1.21-.19-4.19,0-7.12.68-9.26,1.85-.31.18-.61.38-.91.57-8.34,5.83-3.12,21.77-24.79,43.18-8.37,8.27-16.76,13.29-24.67,16.14a51.71,51.71,0,0,1-40.73-2.07c-5.34-2.81-10.46-10.38-14.13-17-.71-1.27-1.36-2.49-2-3.64h0c-5.59-9.32-14.13-9.84-21-8.23-20.44,5-47.74,56.67-47.74,56.67h0c-9.33,17.79-15.62,33.14-16.8,36.05a300.68,300.68,0,0,0-12,40.61q-1.86,8.58-3,16.56c-.76,5.23-1.3,10.25-1.63,15,100.11-34.71,176-29.69,243.11-17.3h0S433.86,312.76,424,271.22ZM291.4,224.78l-8.14,7.94a.81.81,0,0,0-.23.72l2,11.21a.82.82,0,0,1-.68.94h0a.83.83,0,0,1-.51-.08l-10.06-5.29a.85.85,0,0,0-.76,0L263,245.51a.82.82,0,0,1-1.1-.33.88.88,0,0,1-.08-.53l1.92-11.21a.84.84,0,0,0-.24-.72l-8.14-7.94a.81.81,0,0,1,.45-1.39L267,221.75a.82.82,0,0,0,.61-.44l5-10.2a.82.82,0,0,1,1.1-.37h0a.83.83,0,0,1,.37.37l5,10.2a.82.82,0,0,0,.62.44l11.3,1.64a.81.81,0,0,1,.42,1.39ZM349.82,163l-8.14,7.94a.84.84,0,0,0-.24.72l1.93,11.21a.82.82,0,0,1-.68.94h0a.83.83,0,0,1-.51-.08l-10.07-5.29a.85.85,0,0,0-.76,0l-10.06,5.29a.82.82,0,0,1-1.11-.34h0a.83.83,0,0,1-.08-.51l1.9-11.21a.81.81,0,0,0-.23-.72L313.65,163a.81.81,0,0,1,.45-1.39L325.35,160a.79.79,0,0,0,.62-.44l5-10.2a.82.82,0,0,1,1.1-.37h0a.83.83,0,0,1,.37.37l5,10.2a.79.79,0,0,0,.62.44l11.25,1.64a.81.81,0,0,1,.73.88h0A.82.82,0,0,1,349.82,163Zm22.06,116.47-3.26,3.18a.81.81,0,0,0-.23.72l.77,4.49a.83.83,0,0,1-.69.95h0a.86.86,0,0,1-.5-.08l-4-2.12a.79.79,0,0,0-.76,0l-4,2.12a.82.82,0,0,1-1.18-.87l.77-4.49a.84.84,0,0,0-.24-.72l-3.26-3.18a.82.82,0,0,1,0-1.16h0a.85.85,0,0,1,.47-.24l4.51-.65a.83.83,0,0,0,.62-.45l2-4.08a.82.82,0,0,1,1.1-.37h0a.83.83,0,0,1,.37.37l2,4.08a.81.81,0,0,0,.61.45l4.51.65a.82.82,0,0,1,.41,1.4Z"></path><path class="cls-3" d="M404.69,377.26c-3.43-3-6.41-5.43-8.56-7.1-1.13-.82-2.29-1.68-3.48-2.62-56-44-115.78-60.65-167.63-64.79a295.63,295.63,0,0,0-57.11,2.63c-1.49.37-4.56.89-10,1.6h-.07A123.87,123.87,0,0,0,139,311c-14.4,4.23-22.72,9.59-23.47,10.08-7.17,4.79-14,11.55-14.4,20.13a76.79,76.79,0,0,0,2.49,12c.23.55.47,1.06.72,1.54a17.24,17.24,0,0,0,3.2,4.47c.27.27.55.52.82.75A11.64,11.64,0,0,0,110,361.1a10.11,10.11,0,0,0,1.48.72,9.36,9.36,0,0,0,1.27.4,6.55,6.55,0,0,0,1.59.22h1.56a6.7,6.7,0,0,0,1-.05h.3l.87-.1,1.06-.15c.4-.06.82-.15,1.23-.23l1.09-.23.79-.21.48-.12h0c.38-.1.75-.19,1.13-.31h0c.43-.12.86-.26,1.3-.4h0l1.14-.36h0L127,360l.6-.22,1.14-.42,1.38-.55,1.12-.46h0l1.36-.6h0l1.12-.49h0l.16-.07,1.23-.58,1.07-.51h0l1.36-.69,1-.52h0l1.3-.69h.06l1-.53h0l1.26-.69h.07l1-.53h0l1.21-.69.12-.07.84-.48,1.39-.82c.22-.14.46-.27.68-.4h0l1.08-.66.32-.19.52-.32h0l.89-.55.58-.37.29-.18c1.23-.9,2.49-1.75,3.76-2.57l2.42-1.52.15-.11h0c1.39-.83,2.82-1.61,4.26-2.36l.88-.44q1.88-1,3.81-1.83l.47-.21c3.07-1.36,6.22-2.55,9.42-3.6.58-.19,1.15-.41,1.73-.59.83-.25,1.65-.46,2.47-.69,1.41-.4,2.82-.78,4.23-1.13s3-.74,4.54-1.05h0c1.18-.24,2.35-.44,3.52-.64.53-.1,1.06-.21,1.59-.29h.21c.49-.08,1-.13,1.47-.2,1.22-.18,2.45-.37,3.67-.52l1.69-.17c1.14-.12,2.28-.24,3.42-.33l2-.13c1-.06,2-.13,3.07-.17.72,0,1.44,0,2.17-.06h0c.8,0,1.59,0,2.39-.06h.92c1,0,2.06,0,3.08.05h1c1.52,0,3,.12,4.56.21l1.15.09c1.13.08,2.26.16,3.38.26l1.62.17,2.89.32,1.73.23c.91.12,1.83.25,2.74.39l1.73.27,2.76.48,1.62.3,3,.6,1.34.28c1.39.3,2.77.63,4.14,1h.1c1.42.35,2.82.72,4.22,1.09l1.18.34q1.5.4,3,.84l1.46.44,2.62.82,1.51.49,2.53.85,1.46.51,2.57.93,1.32.48,2.89,1.12.89.35c1.26.5,2.52,1,3.75,1.53l.37.16c1.09.46,2.17.93,3.24,1.4l1.12.49,2.42,1.1,1.25.59,2.2,1,1.26.61,2.12,1,1.19.6,2.18,1.13,1,.52,2.57,1.38.5.27,3,1.65.74.42,2.11,1.21,1,.57,1.76,1,1,.62,1.58,1,1,.61,1.54,1,.89.56,1.59,1,.71.45.86.57,1.15-6.7a.85.85,0,0,0-.24-.73L313.57,349a.82.82,0,0,1,0-1.16h0a.85.85,0,0,1,.47-.24L325.21,346a.83.83,0,0,0,.62-.45l5-10.2a.82.82,0,0,1,1.1-.37h0a.83.83,0,0,1,.37.37l5,10.2a.83.83,0,0,0,.62.45l11.25,1.63a.81.81,0,0,1,.69.91v0a.85.85,0,0,1-.24.47l-8.14,8a.82.82,0,0,0-.23.73l1.92,11.2a.82.82,0,0,1-.68.94h0a.83.83,0,0,1-.51-.08l-10.06-5.29a.85.85,0,0,0-.76,0l-6,3.15c3.71,2.73,7.39,5.43,11,8h0l4.38,3.14,1.38,1,3,2.08,1.65,1.13,2.64,1.81L351,386c.82.56,1.65,1.11,2.47,1.65l1.79,1.17,2.4,1.54,1.76,1.12,2.38,1.46,1.7,1c.81.49,1.61.95,2.41,1.41l1.6.93c.86.49,1.72,1,2.57,1.41l1.34.74q1.72.92,3.42,1.74l.42.22c1.26.61,2.5,1.19,3.73,1.74l1.12.48c.85.36,1.69.72,2.53,1.05l1.36.51c.74.27,1.47.54,2.19.78.48.17.95.31,1.43.46.68.21,1.36.42,2,.6l1.43.36c.65.16,1.3.31,1.94.44l1.4.26c.63.1,1.25.19,1.87.26l1.34.15c.63,0,1.24.08,1.86.09h2.34l.81-.06a3.55,3.55,0,0,0,.8-.06h0a6.41,6.41,0,0,0,1.07-.15c.51-.07,1-.16,1.52-.27l1-.25h0c.5-.13,1-.28,1.46-.44h0c.33-.11.66-.22,1-.35s1-.41,1.45-.64c.29-.14.59-.27.88-.42s.88-.52,1.31-.79l.23-.14h0c.23-.15.45-.27.67-.42h0a23.94,23.94,0,0,0,2.11-1.65h0l.16-.15h0A24,24,0,0,0,418.1,400h0c.17-.19.33-.4.5-.6C417.39,389.23,407.33,379.63,404.69,377.26Z"></path><path class="cls-3" d="M431,365.11c-.12.76-.23,1.53-.36,2.3C430.74,366.64,430.85,365.87,431,365.11Z"></path><path class="cls-3" d="M431.88,358.54c.07-.58.12-1.16.19-1.74-.12,1.06-.26,2.13-.39,3.19C431.74,359.51,431.83,359,431.88,358.54Z"></path><path class="cls-3" d="M432.67,350.05c.17-2.45.29-4.89.38-7.33C433,345.16,432.84,347.6,432.67,350.05Z"></path><path class="cls-3" d="M431.68,360c-.21,1.7-.45,3.41-.71,5.12C431.23,363.4,431.47,361.69,431.68,360Z"></path><path class="cls-3" d="M432.3,354.53c.12-1.24.21-2.47.31-3.71-.13,1.67-.27,3.34-.44,5C432.21,355.4,432.26,355,432.3,354.53Z"></path><path class="cls-3" d="M432.17,355.83c0,.32-.07.65-.1,1C432.1,356.48,432.13,356.15,432.17,355.83Z"></path><path class="cls-3" d="M432.66,350.18v-.13l-.06.77C432.62,350.61,432.65,350.39,432.66,350.18Z"></path><path class="cls-3" d="M418.93,399c.42-.49.84-1,1.25-1.54h0c-.41.55-.83,1.05-1.25,1.55Z"></path><path class="cls-3" d="M348.14,400.8a14.36,14.36,0,0,1,1,1.57,136.74,136.74,0,0,0,22,24.82,21.31,21.31,0,0,0,27.11.45,64.09,64.09,0,0,0,10.18-10.25,53.57,53.57,0,0,0,3.18-4.59c.07-.12.69-1,1.46-2.17l3.63-5.33A38.57,38.57,0,0,1,397,413C373.38,415.72,348.14,400.8,348.14,400.8Z"></path><path class="cls-4" d="M431.09,305.66q-.78-5.73-1.79-11.26c1.5,11.65-11.34,12.24-13.8,12.24-12-.18-29.75-2-56-7.31q-7.86-1.6-15.87-3.08c-67.16-12.39-143-17.41-243.11,17.3h0v1h0A369.84,369.84,0,0,1,225,302.75c51.85,4.14,111.62,20.83,167.63,64.79,1.19.94,2.35,1.8,3.48,2.62,2.15,1.67,5.13,4.09,8.56,7.1,2.64,2.37,12.7,12,14.12,21.91h0l.12-.14c.42-.5.84-1,1.25-1.55.23-.31.46-.65.68-1,.37-.53.73-1.06,1.07-1.63l.06-.09c.21-.34.41-.71.62-1.07.33-.58.67-1.18,1-1.8.22-.43.43-.86.64-1.31.3-.65.6-1.32.88-2,.2-.46.4-.93.58-1.42.29-.74.56-1.52.83-2.31.17-.49.34-1,.51-1.48.28-.9.55-1.84.81-2.8.06-.23.13-.44.2-.68l.18-.67c.08-.32.15-.66.23-1,.29-1.16.57-2.31.83-3.55a184.2,184.2,0,0,0,3.4-24.52c.39-5.37.55-10.69.51-16s-.29-10.65-.71-15.86Q431.94,311.92,431.09,305.66Z"></path><path class="cls-2" d="M100.46,314.54c-.1,1.56-.18,3.09-.23,4.6-.06,1.35-.1,2.68-.12,4v.22c-.06,4.43.08,8.61.4,12.51.15,1.85.35,3.62.58,5.34.44-8.58,7.23-15.34,14.4-20.13l.25-.16A94.26,94.26,0,0,1,139,311a124.19,124.19,0,0,1,18.89-4H158c3.25-.57,6.57-1.11,10-1.6a295.72,295.72,0,0,1,57-2.65A369.93,369.93,0,0,0,100.46,314.54Z"></path><path class="cls-5" d="M424,271.22h0c-.6-2.19-1.22-4.35-1.85-6.46l-.51-1.68c-.48-1.56-1-3.1-1.44-4.61l-.57-1.75c-.48-1.46-1-2.91-1.46-4.33l-.57-1.63c-.25-.72-.5-1.46-.76-2.17l-.69-1.87-.69-1.86c-.21-.56-.42-1.14-.63-1.69-.34-.91-.69-1.78-1-2.67l-.18-.45c-.6-1.52-1.19-3-1.79-4.45l-.21-.5c-.14-.35-.29-.68-.43-1-.44-1-.88-2.12-1.32-3.13l-.39-.89h0l-.56-1.29c-.49-1.11-1-2.18-1.44-3.22h0l-7.41,7.22a.84.84,0,0,0-.24.72l1.92,11.21a.81.81,0,0,1-.65.94.75.75,0,0,1-.53-.08l-10.07-5.29a.85.85,0,0,0-.76,0l-10.06,5.29a.82.82,0,0,1-1.11-.34h0a.83.83,0,0,1-.08-.51l1.92-11.21a.81.81,0,0,0-.23-.72l-8.21-8a.82.82,0,0,1,0-1.16h0a.91.91,0,0,1,.46-.23l11.25-1.64a.82.82,0,0,0,.62-.44l5-10.2a.82.82,0,0,1,1.1-.37h0a.83.83,0,0,1,.37.37l5,10.2a.82.82,0,0,0,.61.44l9.92,1.44h0c-5.48-11.79-9.61-18.64-9.61-18.64-1.38-2.51-2.73-4.91-4.07-7.25h0l-.15-.27-.33-.55c-5.38-9.34-10.45-17.27-15.23-24l-.05-.08-1.74-2.52-.58-.84-1.32-1.87-.65-.91c-.51-.71-1-1.43-1.54-2.14-.14-.2-.29-.4-.43-.61-.65-.89-1.31-1.79-2-2.69h0l-.53-.72-1.54-2-.71-.93-1.55-2c-.21-.27-.41-.54-.63-.81l-2-2.56c-.05-.06-.09-.12-.14-.17l-.12-.16-.23-.28L359.31,149l-.73-.87c-.53-.64-1.07-1.27-1.6-1.9l-.74-.87-2-2.31-.07-.08-.21-.24-.12-.13c-.73-.81-1.46-1.62-2.19-2.41l-.69-.73c-.56-.6-1.12-1.19-1.69-1.78l-.79-.82L346.7,135l-.53-.52-.08-.07v0c-.76-.74-1.52-1.46-2.28-2.17h0l-.09-.08-.45-.41c-.62-.56-1.24-1.12-1.86-1.66l-.78-.68-1.7-1.41c-.25-.2-.49-.41-.74-.6-.76-.61-1.52-1.2-2.28-1.76l-.09-.07-.15-.1h0c-.73-.54-1.45-1-2.17-1.53l-.74-.48c-.56-.36-1.11-.71-1.67-1l-.76-.45c-.64-.37-1.28-.71-1.91-1l-.42-.22h0a23.88,23.88,0,0,0-2.26-1l-.61-.24c-.57-.22-1.13-.43-1.69-.61l-.74-.24c-.56-.16-1.11-.31-1.65-.43l-.61-.14c-.41-.09-.81-.13-1.21-.19-4.19,0-7.12.68-9.26,1.85-.31.18-.61.38-.91.57-8.34,5.83-3.12,21.77-24.79,43.18-8.37,8.27-16.76,13.29-24.67,16.14a51.71,51.71,0,0,1-40.73-2.07c-5.34-2.81-10.46-10.38-14.13-17-.71-1.27-1.36-2.49-2-3.64h0c-5.59-9.32-14.13-9.84-21-8.23-20.44,5-47.74,56.67-47.74,56.67h0c-9.33,17.79-15.62,33.14-16.8,36.05a300.68,300.68,0,0,0-12,40.61q-1.86,8.58-3,16.56c-.76,5.23-1.3,10.25-1.63,15,100.11-34.71,176-29.69,243.11-17.3h0S433.86,312.76,424,271.22ZM291.4,224.78l-8.14,7.94a.81.81,0,0,0-.23.72l2,11.21a.82.82,0,0,1-.68.94h0a.83.83,0,0,1-.51-.08l-10.06-5.29a.85.85,0,0,0-.76,0L263,245.51a.82.82,0,0,1-1.1-.33.88.88,0,0,1-.08-.53l1.92-11.21a.84.84,0,0,0-.24-.72l-8.14-7.94a.81.81,0,0,1,.45-1.39L267,221.75a.82.82,0,0,0,.61-.44l5-10.2a.82.82,0,0,1,1.1-.37h0a.83.83,0,0,1,.37.37l5,10.2a.82.82,0,0,0,.62.44l11.3,1.64a.81.81,0,0,1,.42,1.39ZM349.82,163l-8.14,7.94a.84.84,0,0,0-.24.72l1.93,11.21a.82.82,0,0,1-.68.94h0a.83.83,0,0,1-.51-.08l-10.07-5.29a.85.85,0,0,0-.76,0l-10.06,5.29a.82.82,0,0,1-1.11-.34h0a.83.83,0,0,1-.08-.51l1.9-11.21a.81.81,0,0,0-.23-.72L313.65,163a.81.81,0,0,1,.45-1.39L325.35,160a.79.79,0,0,0,.62-.44l5-10.2a.82.82,0,0,1,1.1-.37h0a.83.83,0,0,1,.37.37l5,10.2a.79.79,0,0,0,.62.44l11.25,1.64a.81.81,0,0,1,.73.88h0A.82.82,0,0,1,349.82,163Zm22.06,116.47-3.26,3.18a.81.81,0,0,0-.23.72l.77,4.49a.83.83,0,0,1-.69.95h0a.86.86,0,0,1-.5-.08l-4-2.12a.79.79,0,0,0-.76,0l-4,2.12a.82.82,0,0,1-1.18-.87l.77-4.49a.84.84,0,0,0-.24-.72l-3.26-3.18a.82.82,0,0,1,0-1.16h0a.85.85,0,0,1,.47-.24l4.51-.65a.83.83,0,0,0,.62-.45l2-4.08a.82.82,0,0,1,1.1-.37h0a.83.83,0,0,1,.37.37l2,4.08a.81.81,0,0,0,.61.45l4.51.65a.82.82,0,0,1,.41,1.4Z"></path><path class="cls-6" d="M404.69,377.26c-3.43-3-6.41-5.43-8.56-7.1-1.13-.82-2.29-1.68-3.48-2.62-56-44-115.78-60.65-167.63-64.79a295.63,295.63,0,0,0-57.11,2.63c-1.49.37-4.56.89-10,1.6h-.07A123.87,123.87,0,0,0,139,311c-14.4,4.23-22.72,9.59-23.47,10.08-7.17,4.79-14,11.55-14.4,20.13a76.79,76.79,0,0,0,2.49,12c.23.55.47,1.06.72,1.54a17.24,17.24,0,0,0,3.2,4.47c.27.27.55.52.82.75A11.64,11.64,0,0,0,110,361.1a10.11,10.11,0,0,0,1.48.72,9.36,9.36,0,0,0,1.27.4,6.55,6.55,0,0,0,1.59.22h1.56a6.7,6.7,0,0,0,1-.05h.3l.87-.1,1.06-.15c.4-.06.82-.15,1.23-.23l1.09-.23.79-.21.48-.12h0c.38-.1.75-.19,1.13-.31h0c.43-.12.86-.26,1.3-.4h0l1.14-.36h0L127,360l.6-.22,1.14-.42,1.38-.55,1.12-.46h0l1.36-.6h0l1.12-.49h0l.16-.07,1.23-.58,1.07-.51h0l1.36-.69,1-.52h0l1.3-.69h.06l1-.53h0l1.26-.69h.07l1-.53h0l1.21-.69.12-.07.84-.48,1.39-.82c.22-.14.46-.27.68-.4h0l1.08-.66.32-.19.52-.32h0l.89-.55.58-.37.29-.18c1.23-.9,2.49-1.75,3.76-2.57l2.42-1.52.15-.11h0c1.39-.83,2.82-1.61,4.26-2.36l.88-.44q1.88-1,3.81-1.83l.47-.21c3.07-1.36,6.22-2.55,9.42-3.6.58-.19,1.15-.41,1.73-.59.83-.25,1.65-.46,2.47-.69,1.41-.4,2.82-.78,4.23-1.13s3-.74,4.54-1.05h0c1.18-.24,2.35-.44,3.52-.64.53-.1,1.06-.21,1.59-.29h.21c.49-.08,1-.13,1.47-.2,1.22-.18,2.45-.37,3.67-.52l1.69-.17c1.14-.12,2.28-.24,3.42-.33l2-.13c1-.06,2-.13,3.07-.17.72,0,1.44,0,2.17-.06h0c.8,0,1.59,0,2.39-.06h.92c1,0,2.06,0,3.08.05h1c1.52,0,3,.12,4.56.21l1.15.09c1.13.08,2.26.16,3.38.26l1.62.17,2.89.32,1.73.23c.91.12,1.83.25,2.74.39l1.73.27,2.76.48,1.62.3,3,.6,1.34.28c1.39.3,2.77.63,4.14,1h.1c1.42.35,2.82.72,4.22,1.09l1.18.34q1.5.4,3,.84l1.46.44,2.62.82,1.51.49,2.53.85,1.46.51,2.57.93,1.32.48,2.89,1.12.89.35c1.26.5,2.52,1,3.75,1.53l.37.16c1.09.46,2.17.93,3.24,1.4l1.12.49,2.42,1.1,1.25.59,2.2,1,1.26.61,2.12,1,1.19.6,2.18,1.13,1,.52,2.57,1.38.5.27,3,1.65.74.42,2.11,1.21,1,.57,1.76,1,1,.62,1.58,1,1,.61,1.54,1,.89.56,1.59,1,.71.45.86.57,1.15-6.7a.85.85,0,0,0-.24-.73L313.57,349a.82.82,0,0,1,0-1.16h0a.85.85,0,0,1,.47-.24L325.21,346a.83.83,0,0,0,.62-.45l5-10.2a.82.82,0,0,1,1.1-.37h0a.83.83,0,0,1,.37.37l5,10.2a.83.83,0,0,0,.62.45l11.25,1.63a.81.81,0,0,1,.69.91v0a.85.85,0,0,1-.24.47l-8.14,8a.82.82,0,0,0-.23.73l1.92,11.2a.82.82,0,0,1-.68.94h0a.83.83,0,0,1-.51-.08l-10.06-5.29a.85.85,0,0,0-.76,0l-6,3.15c3.71,2.73,7.39,5.43,11,8h0l4.38,3.14,1.38,1,3,2.08,1.65,1.13,2.64,1.81L351,386c.82.56,1.65,1.11,2.47,1.65l1.79,1.17,2.4,1.54,1.76,1.12,2.38,1.46,1.7,1c.81.49,1.61.95,2.41,1.41l1.6.93c.86.49,1.72,1,2.57,1.41l1.34.74q1.72.92,3.42,1.74l.42.22c1.26.61,2.5,1.19,3.73,1.74l1.12.48c.85.36,1.69.72,2.53,1.05l1.36.51c.74.27,1.47.54,2.19.78.48.17.95.31,1.43.46.68.21,1.36.42,2,.6l1.43.36c.65.16,1.3.31,1.94.44l1.4.26c.63.1,1.25.19,1.87.26l1.34.15c.63,0,1.24.08,1.86.09h2.34l.81-.06a3.55,3.55,0,0,0,.8-.06h0a6.41,6.41,0,0,0,1.07-.15c.51-.07,1-.16,1.52-.27l1-.25h0c.5-.13,1-.28,1.46-.44h0c.33-.11.66-.22,1-.35s1-.41,1.45-.64c.29-.14.59-.27.88-.42s.88-.52,1.31-.79l.23-.14h0c.23-.15.45-.27.67-.42h0a23.94,23.94,0,0,0,2.11-1.65h0l.16-.15h0A24,24,0,0,0,418.1,400h0c.17-.19.33-.4.5-.6C417.39,389.23,407.33,379.63,404.69,377.26Z"></path><path class="cls-7" d="M348.14,400.8a14.36,14.36,0,0,1,1,1.57,136.74,136.74,0,0,0,22,24.82,21.31,21.31,0,0,0,27.11.45,64.09,64.09,0,0,0,10.18-10.25,53.57,53.57,0,0,0,3.18-4.59c.07-.12.69-1,1.46-2.17l3.63-5.33A38.57,38.57,0,0,1,397,413C373.38,415.72,348.14,400.8,348.14,400.8Z"></path><g class="cls-8"><path class="cls-9" d="M186.59,300.49s195.84,9.57,199.93,111.35c2.94,73.08,66.07-14.35,66.07-14.35L346.76,302.37Z"></path></g><g class="cls-10"><path class="cls-11" d="M81.54,313.55c-31.78,39.34,3-16.31,180.17-68.9,135.11-40.1,79.64-114.72,79.64-114.72L491.92,225.5v91.81L29.27,366.26Z"></path></g><path class="cls-3" d="M52.18,244.7l1.14-9.29,36.85-10.5-1.26,10.33L82.38,237l-1.65,13.42,5.91,3.25-1.25,10.14Zm22.36-5.82-10.37,2.66,9.41,5.14Z"></path><path class="cls-3" d="M76.19,219l-18.62-6.35,3.18-9.34,18.44,6.29c4.78,1.63,7.88,0,9.14-3.71s-.09-6.86-4.74-8.44l-18.67-6.36,3.19-9.34L86.49,188c10.71,3.65,13.32,11.36,10.1,20.79S86.57,222.53,76.19,219Z"></path><path class="cls-3" d="M98,187.92,95.1,180a18.12,18.12,0,0,0,9.32-7.75c1.29-2.25,1.21-3.92-.09-4.67h-.08c-1.26-.72-2.53-.12-5.86,3.45-5.19,5.61-9.89,9.55-16.13,5.95h-.09c-5.63-3.25-7.14-10.06-2.94-17.35,3-5.16,6.68-8.39,11.23-10.16L94,157.12a17.53,17.53,0,0,0-7.88,6.77c-1.18,2-.89,3.54.2,4.16h.09c1.38.8,2.59.11,6-3.55,5.54-6.1,10.29-9.14,16-5.87h.08c6.21,3.57,7.07,10.6,2.82,18A24.44,24.44,0,0,1,98,187.92Z"></path><path class="cls-3" d="M105.18,137.4l-6.77,8L91.89,140l19.79-23.53,6.51,5.48-6.76,8,20.31,17-6.25,7.44Z"></path><path class="cls-3" d="M119.29,109l12.86-10.46c4.15-3.38,7.91-4.63,11.25-4.25A10.89,10.89,0,0,1,151,98.66l.06.08a11.08,11.08,0,0,1,1.2,12.9l14.19,4.2-8.69,7.07-12.18-3.77-3.3,2.68,6.7,8.23-7.53,6.13Zm23.12,2.87c2.56-2.08,3-4.52,1.42-6.5l-.07-.08c-1.73-2.14-4.17-2-6.7.09l-4.93,4,5.31,6.53Z"></path><path class="cls-3" d="M163.06,77.55l8.3-4.32L200.9,97.64l-9.23,4.81-5.16-4.37-12,6.24.67,6.71-9.05,4.72Zm17.47,15.12-8.06-7,1.09,10.66Z"></path><path class="cls-3" d="M194.16,63.54l9.31-2.74,7.46,25.45,16.28-4.77,2.4,8.17L204,97.15Z"></path><path class="cls-3" d="M229.4,54.53l9.65-1.46,5.23,34.66-9.65,1.46Z"></path><path class="cls-3" d="M263.45,51.06l9.36.16,14.34,35.53-10.41-.17-2.45-6.3-13.52-.22-2.6,6.22L248,86.11Zm8.16,21.61-3.74-10-4.12,9.9Z"></path><path class="cls-3" d="M297.78,53l8.84,2,10,21.22,4.06-18.06,9.37,2.1-7.67,34.18-8.3-1.86-10.39-22-4.21,18.76-9.38-2.11Z"></path><path class="cls-3" d="M349.58,86.2v-.09c5.06-8.69,16.17-11.67,25.52-6.23S387.36,96.3,382.3,105l-.05.09c-5.06,8.7-16.17,11.67-25.51,6.24S344.52,94.9,349.58,86.2Zm24.05,14,.05-.08c2.54-4.37,1.6-10-3-12.71s-9.82-.73-12.36,3.64l-.05.08c-2.55,4.37-1.6,10,3,12.68s9.82.75,12.36-3.62Z"></path><path class="cls-3" d="M398.31,94.2l7.31,7.2-9.87,18.73,19.1-9.78,6,5.87-9.48,19.25L430,125.31l7.16,7.06L404,149.3l-6-5.94L407.07,124l-19.15,9.45-6-5.93Z"></path><path class="cls-3" d="M443.16,142.35l4.64,7.78L439.27,172l15.91-9.48,4.92,8.26L430,188.7l-4.36-7.31,8.85-22.69L418,168.53l-4.92-8.25Z"></path><path class="cls-3" d="M465.28,182.43,474.63,209l-7.8,2.74-6.16-17.53-5,1.76,5.58,15.87L454,214.42l-5.59-15.87-5.24,1.84,6.24,17.77-7.79,2.74-9.43-26.84Z"></path><path class="cls-3" d="M477.52,220.4l1.89,13.39c1.76,12.39-4.36,20.58-14.38,22h-.09c-10,1.42-18.48-4.81-20.25-17.3l-1.86-13.18Zm-24.25,17.24c.81,5.75,4.52,9.11,10.12,8.32h.1c5.55-.79,8.23-5.06,7.42-10.81l-.55-3.91-17.65,2.49Z"></path></g></g></svg>